<svg width="122" height="90" viewBox="0 0 122 90" fill="none" xmlns="http://www.w3.org/2000/svg">
<path d="M103.986 22.9214H78.7949V68.5787H120.068V48.0284L115.255 31.392C113.804 26.3752 109.208 22.9214 103.986 22.9214Z" fill="#FF7058"/>
<path d="M114.042 47.8169L109.752 32.9875C109.013 30.4384 106.641 28.6543 103.985 28.6543H84.5281V47.8169H114.042Z" fill="#84DBFF"/>
<path d="M114.047 47.8096H84.5176V28.647L114.047 47.8096Z" fill="#CDD6E0"/>
<path d="M114.042 47.8169L109.752 32.9875C109.013 30.4384 106.641 28.6543 103.985 28.6543H84.5281L114.042 47.8169Z" fill="#F2F2F2"/>
<path d="M7.62411 0H71.1705C75.3792 0 78.7949 3.41309 78.7949 7.62436V68.5761H-0.000244141V7.62436C-0.000244141 3.41333 3.41285 0 7.62411 0Z" fill="#FFD15C"/>
<path d="M51.6419 0.0131836V20.1591L48.6936 17.2111L45.6034 20.3016L42.5155 17.2111L39.4277 20.3016L36.3346 17.2111L33.2062 20.3016L30.1207 17.2111L27.1372 20.1949V0.0131836H51.6419Z" fill="#F2F2F2"/>
<path d="M122 68.5739V77.1894H0.0100098V68.5739H12.7427C15.7162 63.2369 21.4345 59.6279 27.9914 59.6279C34.5229 59.6279 40.2411 63.2369 43.2401 68.5739H84.2084C87.1819 63.2369 92.8723 59.6279 99.4292 59.6279C105.986 59.6279 111.679 63.2369 114.678 68.5739H122Z" fill="#334A5E"/>
<path d="M111.605 77.1356C111.605 83.8603 106.154 89.3117 99.4289 89.3117C92.7042 89.3117 87.2578 83.8603 87.2578 77.1356C87.2578 70.4109 92.7066 64.9595 99.4289 64.9595C106.156 64.9595 111.605 70.4109 111.605 77.1356Z" fill="#40596B"/>
<path d="M104.324 77.1354C104.324 79.8371 102.134 82.0253 99.4346 82.0253C96.733 82.0253 94.5398 79.8371 94.5398 77.1354C94.5398 74.4338 96.7306 72.2456 99.4346 72.2456C102.134 72.2432 104.324 74.434 104.324 77.1354Z" fill="#ACB3BA"/>
<path d="M40.1566 77.1356C40.1566 83.8603 34.7026 89.3117 27.9805 89.3117C21.2559 89.3117 15.8044 83.8603 15.8044 77.1356C15.8044 70.4109 21.2559 64.9595 27.9805 64.9595C34.7026 64.9595 40.1566 70.4109 40.1566 77.1356Z" fill="#40596B"/>
<path d="M32.8704 77.1354C32.8704 79.8371 30.6822 82.0253 27.9806 82.0253C25.279 82.0253 23.0884 79.8371 23.0884 77.1354C23.0884 74.4338 25.2792 72.2456 27.9806 72.2456C30.682 72.2456 32.8704 74.434 32.8704 77.1354Z" fill="#ACB3BA"/>
</svg>
